<svg width="38" height="39" viewBox="0 0 38 39" fill="none" xmlns="http://www.w3.org/2000/svg">
<path d="M18.7671 38.4947C29.1318 38.4947 37.5341 29.8773 37.5341 19.2473C37.5341 8.61732 29.1318 0 18.7671 0C8.4023 0 0 8.61732 0 19.2473C0 29.8773 8.4023 38.4947 18.7671 38.4947Z" fill="#272EAE"/>
<path d="M16.9369 29.7371V20.4305H13.6949V16.7322H16.9369V13.8182C16.9369 10.6524 18.9488 8.9292 21.8865 8.9292C23.294 8.9292 24.5029 9.0308 24.8537 9.0755V12.3836H22.8164C21.2186 12.3836 20.9101 13.1152 20.9101 14.184V16.7322H24.5155L24.021 20.4305H20.9101V29.7371" fill="white"/>
<mask id="mask0_1130_189" style="mask-type:alpha" maskUnits="userSpaceOnUse" x="13" y="8" width="12" height="22">
<path d="M16.9369 29.7371V20.4305H13.6949V16.7322H16.9369V13.8182C16.9369 10.6524 18.9488 8.9292 21.8865 8.9292C23.294 8.9292 24.5029 9.0308 24.8537 9.0755V12.3836H22.8164C21.2186 12.3836 20.9101 13.1152 20.9101 14.184V16.7322H24.5155L24.021 20.4305H20.9101V29.7371" fill="white"/>
</mask>
<g mask="url(#mask0_1130_189)">
</g>
</svg>
