<svg width="38" height="39" viewBox="0 0 38 39" fill="none" xmlns="http://www.w3.org/2000/svg">
<path d="M19.1668 38.4947C29.5316 38.4947 37.9339 29.8773 37.9339 19.2473C37.9339 8.61732 29.5316 0 19.1668 0C8.80205 0 0.39975 8.61732 0.39975 19.2473C0.39975 29.8773 8.80205 38.4947 19.1668 38.4947Z" fill="#1590D8"/>
<path d="M27.7332 15.0008C27.7461 15.1856 27.7461 15.3705 27.7461 15.5553C27.7461 21.193 23.5622 27.6889 15.9153 27.6889C13.5594 27.6889 11.3709 26.9891 9.53 25.7745C9.86472 25.8141 10.1865 25.8273 10.5341 25.8273C12.478 25.8273 14.2675 25.1539 15.6964 24.0053C13.8684 23.9656 12.3364 22.7378 11.8086 21.0478C12.0661 21.0874 12.3235 21.1138 12.5939 21.1138C12.9672 21.1138 13.3406 21.0609 13.6882 20.9686C11.7829 20.5724 10.3539 18.8561 10.3539 16.7832V16.7304C10.9074 17.0473 11.5511 17.2453 12.2334 17.2717C11.1134 16.5059 10.3796 15.1988 10.3796 13.7201C10.3796 12.9279 10.5856 12.2018 10.946 11.568C12.993 14.1558 16.0697 15.8458 19.5198 16.0306C19.4555 15.7138 19.4168 15.3837 19.4168 15.0536C19.4168 12.7035 21.2706 10.7891 23.575 10.7891C24.7722 10.7891 25.8536 11.304 26.6131 12.1358C27.5529 11.9509 28.454 11.5944 29.2522 11.1059C28.9432 12.0962 28.2867 12.928 27.4242 13.4561C28.261 13.3637 29.072 13.126 29.8187 12.7959C29.2523 13.6409 28.5442 14.3934 27.7332 15.0008Z" fill="white"/>
<mask id="mask0_1130_194" style="mask-type:alpha" maskUnits="userSpaceOnUse" x="9" y="10" width="21" height="18">
<path d="M27.7332 15.0008C27.7461 15.1856 27.7461 15.3705 27.7461 15.5553C27.7461 21.193 23.5622 27.6889 15.9153 27.6889C13.5594 27.6889 11.3709 26.9891 9.53 25.7745C9.86472 25.8141 10.1865 25.8273 10.5341 25.8273C12.478 25.8273 14.2675 25.1539 15.6964 24.0053C13.8684 23.9656 12.3364 22.7378 11.8086 21.0478C12.0661 21.0874 12.3235 21.1138 12.5939 21.1138C12.9672 21.1138 13.3406 21.0609 13.6882 20.9686C11.7829 20.5724 10.3539 18.8561 10.3539 16.7832V16.7304C10.9074 17.0473 11.5511 17.2453 12.2334 17.2717C11.1134 16.5059 10.3796 15.1988 10.3796 13.7201C10.3796 12.9279 10.5856 12.2018 10.946 11.568C12.993 14.1558 16.0697 15.8458 19.5198 16.0306C19.4555 15.7138 19.4168 15.3837 19.4168 15.0536C19.4168 12.7035 21.2706 10.7891 23.575 10.7891C24.7722 10.7891 25.8536 11.304 26.6131 12.1358C27.5529 11.9509 28.454 11.5944 29.2522 11.1059C28.9432 12.0962 28.2867 12.928 27.4242 13.4561C28.261 13.3637 29.072 13.126 29.8187 12.7959C29.2523 13.6409 28.5442 14.3934 27.7332 15.0008Z" fill="white"/>
</mask>
<g mask="url(#mask0_1130_194)">
</g>
</svg>
