<svg width="39" height="39" viewBox="0 0 39 39" fill="none" xmlns="http://www.w3.org/2000/svg">
<path d="M19.5665 38.4947C29.9313 38.4947 38.3336 29.8773 38.3336 19.2473C38.3336 8.61732 29.9313 0 19.5665 0C9.20172 0 0.799408 8.61732 0.799408 19.2473C0.799408 29.8773 9.20172 38.4947 19.5665 38.4947Z" fill="#D0021B"/>
<path fill-rule="evenodd" clip-rule="evenodd" d="M26.5756 13.1657C27.4032 13.3969 28.055 14.0782 28.2763 14.9432C28.6783 16.5111 28.6783 19.7825 28.6783 19.7825C28.6783 19.7825 28.6783 23.0538 28.2763 24.6217C28.055 25.4868 27.4032 26.1396 26.5756 26.3708C25.0754 26.791 19.0599 26.791 19.0599 26.791C19.0599 26.791 13.0444 26.791 11.5442 26.3708C10.7166 26.1396 10.0647 25.4868 9.84347 24.6217C9.4415 23.0538 9.4415 19.7825 9.4415 19.7825C9.4415 19.7825 9.4415 16.5111 9.84347 14.9432C10.0647 14.0782 10.7166 13.397 11.5442 13.1657C13.0444 12.7456 19.0599 12.7456 19.0599 12.7456C19.0599 12.7456 25.0754 12.7456 26.5756 13.1657ZM17.0919 16.8118V22.752L22.1197 19.782L17.0919 16.8118Z" fill="white"/>
<mask id="mask0_1130_199" style="mask-type:alpha" maskUnits="userSpaceOnUse" x="9" y="12" width="20" height="15">
<path fill-rule="evenodd" clip-rule="evenodd" d="M26.5756 13.1657C27.4032 13.3969 28.055 14.0782 28.2763 14.9432C28.6783 16.5111 28.6783 19.7825 28.6783 19.7825C28.6783 19.7825 28.6783 23.0538 28.2763 24.6217C28.055 25.4868 27.4032 26.1396 26.5756 26.3708C25.0754 26.791 19.0599 26.791 19.0599 26.791C19.0599 26.791 13.0444 26.791 11.5442 26.3708C10.7166 26.1396 10.0647 25.4868 9.84347 24.6217C9.4415 23.0538 9.4415 19.7825 9.4415 19.7825C9.4415 19.7825 9.4415 16.5111 9.84347 14.9432C10.0647 14.0782 10.7166 13.397 11.5442 13.1657C13.0444 12.7456 19.0599 12.7456 19.0599 12.7456C19.0599 12.7456 25.0754 12.7456 26.5756 13.1657ZM17.0919 16.8118V22.752L22.1197 19.782L17.0919 16.8118Z" fill="white"/>
</mask>
<g mask="url(#mask0_1130_199)">
</g>
</svg>
